<svg id="SEPA-signage" xmlns="http://www.w3.org/2000/svg" xmlns:xlink="http://www.w3.org/1999/xlink" x="0px" y="0px" viewBox="0 0 399 89" preserveAspectRatio="xMinYMin meet" style="position:relative; top:0; left:0; right:0; bottom:0; width:100%; height:100%; enable-background:new 0 0 399 89;" xml:space="preserve">
  <defs>
    <style>
      .cls-1 {
        filter: url(#dropshadow);
      }

      .cls-2 {
        fill: url(#linear-gradient);
      }

      .cls-3 {
        fill: url(#linear-gradient-2);
      }

      .cls-4 {
        fill: url(#linear-gradient-3);
      }

      .cls-5 {
        fill: url(#linear-gradient-4);
      }

      .cls-6 {
        fill: #403f38;
      }

      .cls-7 {
        fill: #65666a;
      }

      .cls-8 {
        fill: #336195;
      }
    </style>
    <filter id="dropshadow" name="dropshadow">
      <feGaussianBlur stdDeviation="0.75" in="SourceAlpha"/>
      <feOffset result="offsetblur"/>
      <feComponentTransfer>
        <feFuncA type="linear" slope="0.3"/>
      </feComponentTransfer>
      <feMerge>
        <feMergeNode/>
        <feMergeNode in="SourceGraphic"/>
      </feMerge>
    </filter>
    <linearGradient id="linear-gradient" x1="31.049" y1="100.899" x2="31.049" y2="47.577" gradientUnits="userSpaceOnUse">
      <stop offset="0" stop-color="#dc1a23"/>
      <stop offset="0.019" stop-color="#c9181e"/>
      <stop offset="0.099" stop-color="#d31014"/>
      <stop offset="0.21" stop-color="#db1818"/>
      <stop offset="0.499" stop-color="#e01111"/>
      <stop offset="0.772" stop-color="#db1818"/>
      <stop offset="0.893" stop-color="#d31014"/>
      <stop offset="0.984" stop-color="#c9181e"/>
      <stop offset="1" stop-color="#c4191f"/>
    </linearGradient>
    <linearGradient id="linear-gradient-2" x1="76.837" y1="99.475" x2="76.837" y2="48.777" xlink:href="#linear-gradient"/>
    <linearGradient id="linear-gradient-3" x1="125.324" y1="99.475" x2="125.324" y2="48.777" xlink:href="#linear-gradient"/>
    <linearGradient id="linear-gradient-4" x1="164.674" y1="99.475" x2="164.674" y2="47.727" xlink:href="#linear-gradient"/>
  </defs>
  <title>SEPA-signage</title>
  <g transform="translate(0,-32)">
  <g class="cls-1">
    <path class="cls-2" d="M40.724,71.426L29.7,65.951c-6.3-3.15-7.725-4.8-7.725-8.85,0-4.875,4.125-7.125,8.024-7.125,8.85,0,13.35,8.624,14.7,13.874h2.1V47.577h-2.25c-0.375,1.425-.75,2.55-2.475,2.55-2.175,0-5.7-2.475-11.7-2.475-14.249,0-16.574,10.2-16.574,14.774,0,3.45,0,9.9,12.825,16.049l5.024,2.4c4.875,2.325,8.4,4.125,8.4,9.15,0,0.975-.375,8.4-9.375,8.4-9.525,0-13.875-8.475-15.375-16.05H13.125V100.9H15.3c0.3-1.2.675-2.55,2.25-2.55,2.325,0,5.7,2.55,12.824,2.55,13.8,0,18.6-9.075,18.6-15.675A15.513,15.513,0,0,0,40.724,71.426Z"/>
    <path class="cls-3" d="M78.449,97.15c-4.875,0-6.3-.9-6.3-4.2V74.8c7.425,0,11.25,2.25,12.149,11.625h1.95V61.076H84.3c-1.125,9.3-4.95,11.249-12.149,11.174v-17.4c0-3.225,1.35-3.525,5.475-3.525,10.124,0,15.45,1.875,17.174,12.524h1.875V48.777H53.4v1.875c3.45,0.225,6.6.375,6.6,5.325v36.3c0,4.649-2.325,4.875-6.6,5.324v1.875H97.273l3-15.6h-2.1C93.449,95.2,85.8,97.15,78.449,97.15Z"/>
    <path class="cls-4" d="M140.4,73.9a12.681,12.681,0,0,0,6.825-11.325c0-12.674-13.65-13.8-19.649-13.8H103.425v1.875c3.975,0.375,6.3.6,6.3,6.9V90.7c0,4.2-1.05,5.175-1.95,5.85-0.525.375-.675,0.45-4.35,1.05v1.875h25.049V97.6c-5.175-.675-6.6-0.824-6.6-6.9V76.75C131.773,76.676,135.6,76.6,140.4,73.9ZM121.874,54.026c0.075-1.65,1.05-2.625,3.6-2.625,6.15,0,8.85,2.85,8.85,11.4,0,9.3-3.375,11.474-12.449,11.324v-20.1Z"/>
    <path class="cls-5" d="M182,87.176L165.274,47.727h-2.1l-16.649,41.1c-2.25,5.624-3.3,8.175-7.35,8.774v1.875H154.4V97.6c-2.55-.15-6.15-0.375-6.15-3.225,0-1.2,1.2-4.275,3.3-9.675h16.874c1.05,2.4,3.45,7.95,3.45,9.975,0,2.476-1.35,2.55-6,2.925v1.875h24.3V97.6C186.573,97.75,185.373,95.2,182,87.176Zm-29.324-5.4,7.05-18.224L167.3,81.775H152.674Z"/>
  </g>
  <g>
    <path class="cls-6" d="M13.948,117.718a4.177,4.177,0,0,0,2.966,1.344c1.41,0,2.245-.7,2.245-1.753,0-1.1-.786-1.442-1.8-1.9l-1.541-.672a3.041,3.041,0,0,1-2.18-2.77c0-1.639,1.442-2.852,3.392-2.852a4.4,4.4,0,0,1,3.163,1.327l-0.721.886a3.456,3.456,0,0,0-2.442-1.017c-1.212,0-2.016.606-2.016,1.573,0,1.032.951,1.426,1.787,1.786l1.54,0.656c1.246,0.54,2.212,1.277,2.212,2.867,0,1.705-1.409,3.064-3.671,3.064a5.175,5.175,0,0,1-3.752-1.589Z"/>
    <path class="cls-6" d="M22.52,109.311H23.9v6.343c0,2.589,1.1,3.408,2.491,3.408,1.426,0,2.557-.819,2.557-3.408v-6.343h1.311v6.31c0,3.458-1.672,4.638-3.868,4.638s-3.868-1.18-3.868-4.638v-6.31Z"/>
    <path class="cls-6" d="M33.058,109.311h3.311c2.376,0,3.966.8,3.966,3.163,0,2.262-1.623,3.327-3.966,3.327H34.435v4.261H33.058V109.311Zm3.13,5.376c1.885,0,2.786-.688,2.786-2.213,0-1.557-.934-2.064-2.786-2.064H34.435v4.277h1.753Z"/>
    <path class="cls-6" d="M42.417,109.311h3.311c2.376,0,3.966.8,3.966,3.163,0,2.262-1.623,3.327-3.966,3.327H43.793v4.261H42.417V109.311Zm3.13,5.376c1.885,0,2.786-.688,2.786-2.213,0-1.557-.934-2.064-2.786-2.064H43.793v4.277h1.753Z"/>
    <path class="cls-6" d="M51.153,114.637c0-3.441,1.9-5.522,4.6-5.522,2.688,0,4.588,2.1,4.588,5.522,0,3.458-1.9,5.621-4.588,5.621C53.054,120.258,51.153,118.095,51.153,114.637Zm7.784,0c0-2.671-1.262-4.326-3.179-4.326-1.934,0-3.2,1.655-3.2,4.326,0,2.688,1.262,4.425,3.2,4.425C57.675,119.062,58.937,117.325,58.937,114.637Z"/>
    <path class="cls-6" d="M68.476,120.062l-2.589-4.539H63.953v4.539H62.577V109.311h3.376c2.18,0,3.753.787,3.753,3.016a2.949,2.949,0,0,1-2.409,3.049l2.737,4.687H68.476Zm-4.523-5.654h1.8c1.671,0,2.589-.687,2.589-2.081,0-1.409-.918-1.917-2.589-1.917h-1.8v4Z"/>
    <path class="cls-6" d="M73.935,110.458H70.673v-1.147h7.883v1.147H75.295v9.6h-1.36v-9.6Z"/>
    <path class="cls-6" d="M80.392,109.311h6.195v1.147H81.769v3.376h4.064V115H81.769v3.9H86.75v1.163H80.392V109.311Z"/>
    <path class="cls-6" d="M88.948,109.311h2.688c3.311,0,5.081,1.918,5.081,5.326,0,3.426-1.77,5.425-5.015,5.425H88.948V109.311Zm2.589,9.637c2.523,0,3.769-1.59,3.769-4.311,0-2.7-1.246-4.211-3.769-4.211H90.324v8.521h1.213Z"/>
    <path class="cls-6" d="M102.289,109.311h3.2c2.179,0,3.7.738,3.7,2.623a2.335,2.335,0,0,1-1.885,2.343v0.065c1.573,0.246,2.491,1.1,2.491,2.573,0,2.114-1.672,3.146-4.064,3.146h-3.441V109.311Zm2.966,4.589c1.819,0,2.589-.655,2.589-1.852,0-1.163-.869-1.655-2.524-1.655h-1.655V113.9h1.59Zm0.278,5.08c1.835,0,2.917-.672,2.917-2.13,0-1.327-1.032-1.934-2.917-1.934h-1.868v4.063h1.868Z"/>
    <path class="cls-6" d="M113.368,115.9l-3.245-6.589H111.6l1.377,3.032c0.344,0.787.672,1.54,1.049,2.344h0.065c0.36-.8.737-1.557,1.065-2.344l1.393-3.032h1.41l-3.229,6.589v4.162h-1.36V115.9Z"/>
    <path class="cls-6" d="M124.89,110.458h-3.261v-1.147h7.883v1.147H126.25v9.6h-1.36v-9.6Z"/>
    <path class="cls-6" d="M131.348,109.311h1.376v4.507h5v-4.507h1.36v10.751h-1.36V115h-5v5.063h-1.376V109.311Z"/>
    <path class="cls-6" d="M141.952,109.311h6.195v1.147h-4.818v3.376h4.064V115h-4.064v3.9h4.982v1.163h-6.358V109.311Z"/>
    <path class="cls-6" d="M153.818,109.311h1.409l3.9,6.752,1.164,2.229h0.065c-0.065-1.082-.18-2.295-0.18-3.426v-5.556h1.295v10.751h-1.41l-3.884-6.769-1.164-2.212h-0.065c0.065,1.081.164,2.229,0.164,3.359v5.621h-1.294V109.311Z"/>
    <path class="cls-6" d="M169.257,116.784H165.34l-1.032,3.277h-1.393l3.638-10.751h1.541l3.638,10.751H170.29Zm-0.344-1.1-0.508-1.639c-0.377-1.2-.721-2.376-1.065-3.621h-0.065c-0.344,1.245-.688,2.425-1.065,3.621l-0.524,1.639h3.229Z"/>
    <path class="cls-6" d="M174.748,110.458h-3.261v-1.147h7.883v1.147h-3.261v9.6h-1.36v-9.6Z"/>
    <path class="cls-6" d="M181.206,109.311h1.376v10.751h-1.376V109.311Z"/>
    <path class="cls-6" d="M184.812,114.637c0-3.441,1.9-5.522,4.6-5.522,2.688,0,4.588,2.1,4.588,5.522,0,3.458-1.9,5.621-4.588,5.621C186.713,120.258,184.812,118.095,184.812,114.637Zm7.784,0c0-2.671-1.262-4.326-3.179-4.326-1.934,0-3.2,1.655-3.2,4.326,0,2.688,1.262,4.425,3.2,4.425C191.334,119.062,192.6,117.325,192.6,114.637Z"/>
    <path class="cls-6" d="M196.235,109.311h1.409l3.9,6.752,1.164,2.229h0.065c-0.065-1.082-.18-2.295-0.18-3.426v-5.556h1.294v10.751h-1.409l-3.884-6.769-1.164-2.212h-0.065c0.065,1.081.164,2.229,0.164,3.359v5.621h-1.294V109.311Z"/>
    <path class="cls-6" d="M211.673,116.784h-3.916l-1.033,3.277h-1.393l3.638-10.751h1.541l3.638,10.751h-1.441Zm-0.344-1.1-0.508-1.639c-0.377-1.2-.722-2.376-1.065-3.621h-0.065c-0.345,1.245-.688,2.425-1.065,3.621l-0.524,1.639h3.229Z"/>
    <path class="cls-6" d="M215.576,109.311h1.377V118.9h4.687v1.163h-6.063V109.311Z"/>
    <path class="cls-6" d="M226.77,109.311h1.377v10.751H226.77V109.311Z"/>
    <path class="cls-6" d="M231,109.311h1.409l3.9,6.752,1.164,2.229h0.065c-0.065-1.082-.181-2.295-0.181-3.426v-5.556h1.295v10.751h-1.409l-3.885-6.769-1.163-2.212h-0.065c0.065,1.081.164,2.229,0.164,3.359v5.621H231V109.311Z"/>
    <path class="cls-6" d="M241.569,117.718a4.18,4.18,0,0,0,2.967,1.344c1.409,0,2.245-.7,2.245-1.753,0-1.1-.787-1.442-1.8-1.9l-1.541-.672a3.042,3.042,0,0,1-2.18-2.77c0-1.639,1.442-2.852,3.393-2.852a4.4,4.4,0,0,1,3.163,1.327l-0.721.886a3.459,3.459,0,0,0-2.442-1.017c-1.213,0-2.016.606-2.016,1.573,0,1.032.95,1.426,1.786,1.786l1.541,0.656c1.245,0.54,2.212,1.277,2.212,2.867,0,1.705-1.409,3.064-3.671,3.064a5.176,5.176,0,0,1-3.753-1.589Z"/>
    <path class="cls-6" d="M252.108,110.458h-3.261v-1.147h7.882v1.147h-3.261v9.6h-1.36v-9.6Z"/>
    <path class="cls-6" d="M258.566,109.311h1.377v10.751h-1.377V109.311Z"/>
    <path class="cls-6" d="M265.04,110.458h-3.261v-1.147h7.882v1.147H266.4v9.6h-1.36v-9.6Z"/>
    <path class="cls-6" d="M271.449,109.311h1.376v6.343c0,2.589,1.1,3.408,2.491,3.408,1.426,0,2.557-.819,2.557-3.408v-6.343h1.311v6.31c0,3.458-1.671,4.638-3.867,4.638s-3.867-1.18-3.867-4.638v-6.31Z"/>
    <path class="cls-6" d="M284.232,110.458h-3.261v-1.147h7.882v1.147h-3.261v9.6h-1.36v-9.6Z"/>
    <path class="cls-6" d="M290.69,109.311h6.194v1.147h-4.817v3.376h4.063V115h-4.063v3.9h4.981v1.163H290.69V109.311Z"/>
    <path class="cls-6" d="M299.295,117.718a4.18,4.18,0,0,0,2.967,1.344c1.409,0,2.245-.7,2.245-1.753,0-1.1-.787-1.442-1.8-1.9l-1.541-.672a3.042,3.042,0,0,1-2.18-2.77c0-1.639,1.442-2.852,3.393-2.852a4.4,4.4,0,0,1,3.163,1.327l-0.721.886a3.459,3.459,0,0,0-2.442-1.017c-1.213,0-2.016.606-2.016,1.573,0,1.032.95,1.426,1.786,1.786l1.541,0.656c1.245,0.54,2.212,1.277,2.212,2.867,0,1.705-1.409,3.064-3.671,3.064a5.176,5.176,0,0,1-3.753-1.589Z"/>
    <path class="cls-6" d="M310.6,114.637c0-3.441,1.9-5.522,4.605-5.522,2.688,0,4.589,2.1,4.589,5.522,0,3.458-1.9,5.621-4.589,5.621C312.5,120.258,310.6,118.095,310.6,114.637Zm7.784,0c0-2.671-1.262-4.326-3.179-4.326-1.934,0-3.2,1.655-3.2,4.326,0,2.688,1.263,4.425,3.2,4.425C317.126,119.062,318.388,117.325,318.388,114.637Z"/>
    <path class="cls-6" d="M322.027,109.311h6.211v1.147H323.4V114.1h4.1v1.146h-4.1v4.818h-1.377V109.311Z"/>
    <path class="cls-6" d="M333.353,109.311h1.377v4.507h5v-4.507h1.36v10.751h-1.36V115h-5v5.063h-1.377V109.311Z"/>
    <path class="cls-6" d="M343.957,109.311h6.194v1.147h-4.817v3.376H349.4V115h-4.063v3.9h4.981v1.163h-6.358V109.311Z"/>
    <path class="cls-6" d="M357.429,116.784h-3.916l-1.033,3.277h-1.393l3.638-10.751h1.541l3.638,10.751h-1.441Zm-0.344-1.1-0.508-1.639c-0.377-1.2-.722-2.376-1.065-3.621h-0.065c-0.345,1.245-.688,2.425-1.065,3.621l-0.524,1.639h3.229Z"/>
    <path class="cls-6" d="M361.33,109.311h1.377V118.9h4.687v1.163H361.33V109.311Z"/>
    <path class="cls-6" d="M369.492,110.458h-3.261v-1.147h7.882v1.147h-3.261v9.6h-1.36v-9.6Z"/>
    <path class="cls-6" d="M375.949,109.311h1.377v4.507h5v-4.507h1.36v10.751h-1.36V115h-5v5.063h-1.377V109.311Z"/>
  </g>
  <g>
    <path d="M205.379,78.224a4.39,4.39,0,0,0,1.265-.161,2.512,2.512,0,0,0,.875-0.441,1.757,1.757,0,0,0,.51-0.662,2.043,2.043,0,0,0,.165-0.826,1.876,1.876,0,0,0-.152-0.782,1.661,1.661,0,0,0-.479-0.6,3.92,3.92,0,0,0-.846-0.51q-0.519-.242-1.244-0.5a9.623,9.623,0,0,1-1.6-.72,4.314,4.314,0,0,1-1.052-.831,2.747,2.747,0,0,1-.577-0.992,3.9,3.9,0,0,1-.175-1.2,3.208,3.208,0,0,1,.306-1.436,2.98,2.98,0,0,1,.84-1.041,3.737,3.737,0,0,1,1.254-.634,5.382,5.382,0,0,1,1.551-.215,6,6,0,0,1,1.8.292,7.586,7.586,0,0,1,1.9.939l-0.688,1.307a6.431,6.431,0,0,0-1.559-.746,4.845,4.845,0,0,0-1.417-.229,2.68,2.68,0,0,0-1.68.461,1.522,1.522,0,0,0-.59,1.271,2.155,2.155,0,0,0,.125.777,1.488,1.488,0,0,0,.41.576,2.949,2.949,0,0,0,.745.464c0.307,0.14.686,0.288,1.138,0.442a11.289,11.289,0,0,1,1.91.813,4.3,4.3,0,0,1,1.115.857,2.288,2.288,0,0,1,.521.955,4.539,4.539,0,0,1,.13,1.125,4.058,4.058,0,0,1-.3,1.59,3.3,3.3,0,0,1-.858,1.2,3.814,3.814,0,0,1-1.377.759,6.1,6.1,0,0,1-1.863.263,6.6,6.6,0,0,1-1.743-.254,9.407,9.407,0,0,1-1.957-.809l0.572-1.395a9.472,9.472,0,0,0,1.613.67A4.893,4.893,0,0,0,205.379,78.224Z"/>
    <path d="M221.169,78.725a10.594,10.594,0,0,1-2.037.8,7.036,7.036,0,0,1-1.823.259,5.558,5.558,0,0,1-1.729-.254,5.035,5.035,0,0,1-1.4-.7,5.147,5.147,0,0,1-1.081-1.06,6.187,6.187,0,0,1-.769-1.327,7.455,7.455,0,0,1-.456-1.506,8.491,8.491,0,0,1-.151-1.595,8.746,8.746,0,0,1,.156-1.649,7.783,7.783,0,0,1,.469-1.559,6.725,6.725,0,0,1,.782-1.377,5.363,5.363,0,0,1,1.086-1.1,4.974,4.974,0,0,1,1.381-.729,5.127,5.127,0,0,1,1.675-.264,4.918,4.918,0,0,1,1.193.144,3.679,3.679,0,0,1,1.077.459,3.452,3.452,0,0,1,.9.83,4.148,4.148,0,0,1,.64,1.248l-1.564.375A2.169,2.169,0,0,0,219.154,69a1.883,1.883,0,0,0-.515-0.456,2.01,2.01,0,0,0-.63-0.241,3.467,3.467,0,0,0-.71-0.072,3.024,3.024,0,0,0-1.6.42,3.741,3.741,0,0,0-1.166,1.125,5.319,5.319,0,0,0-.715,1.63,7.614,7.614,0,0,0-.241,1.924,7,7,0,0,0,.232,1.8,4.882,4.882,0,0,0,.715,1.567,3.743,3.743,0,0,0,1.216,1.107,3.434,3.434,0,0,0,1.733.419A5.286,5.286,0,0,0,218.917,78a10.064,10.064,0,0,0,1.662-.657Z"/>
    <path d="M223.537,79.555V66.938h1.751V79.555h-1.751Z"/>
    <path d="M236.074,79.555h-7.39V66.938h7.31V68.5h-5.559v3.744h5.246v1.563h-5.246v4.146h5.639v1.6Z"/>
    <path d="M238.863,79.555V66.938h2.2l5.889,9.893,0.2-.045q-0.009-.287-0.013-0.657t-0.014-.769q-0.009-.4-0.014-0.791c0-.262-0.006-0.5-0.009-0.729s0-.415,0-0.576V66.938h1.644V79.555H246.62L240.614,69.52l-0.187.045c0.006,0.2.011,0.42,0.014,0.67s0.007,0.512.014,0.782,0.01,0.542.013,0.813,0.006,0.52.009,0.746,0,0.424,0,.594v6.385h-1.617Z"/>
    <path d="M260.828,78.725a10.594,10.594,0,0,1-2.037.8,7.036,7.036,0,0,1-1.823.259,5.558,5.558,0,0,1-1.729-.254,5.035,5.035,0,0,1-1.4-.7,5.147,5.147,0,0,1-1.081-1.06,6.187,6.187,0,0,1-.769-1.327,7.455,7.455,0,0,1-.456-1.506,8.491,8.491,0,0,1-.151-1.595,8.746,8.746,0,0,1,.156-1.649,7.783,7.783,0,0,1,.469-1.559,6.725,6.725,0,0,1,.782-1.377,5.363,5.363,0,0,1,1.086-1.1,4.974,4.974,0,0,1,1.381-.729,5.127,5.127,0,0,1,1.675-.264,4.918,4.918,0,0,1,1.193.144,3.679,3.679,0,0,1,1.077.459,3.452,3.452,0,0,1,.9.83,4.148,4.148,0,0,1,.64,1.248l-1.564.375A2.169,2.169,0,0,0,258.813,69a1.883,1.883,0,0,0-.515-0.456,2.01,2.01,0,0,0-.63-0.241,3.467,3.467,0,0,0-.71-0.072,3.024,3.024,0,0,0-1.6.42,3.741,3.741,0,0,0-1.166,1.125,5.319,5.319,0,0,0-.715,1.63,7.614,7.614,0,0,0-.241,1.924,7,7,0,0,0,.232,1.8,4.882,4.882,0,0,0,.715,1.567A3.743,3.743,0,0,0,255.4,77.8a3.434,3.434,0,0,0,1.733.419A5.286,5.286,0,0,0,258.576,78a10.064,10.064,0,0,0,1.662-.657Z"/>
    <path d="M270.577,79.555h-7.39V66.938h7.31V68.5h-5.559v3.744h5.246v1.563h-5.246v4.146h5.639v1.6Z"/>
    <path d="M285.438,79.555h-7.39V66.938h7.31V68.5H279.8v3.744h5.246v1.563H279.8v4.146h5.639v1.6Z"/>
    <path d="M298.038,73.246a8.357,8.357,0,0,1-.156,1.676,7.7,7.7,0,0,1-.415,1.39,6,6,0,0,1-.595,1.112,5.05,5.05,0,0,1-.71.836,4.233,4.233,0,0,1-.943.625,5.815,5.815,0,0,1-1.09.4,8.091,8.091,0,0,1-1.216.209q-0.639.063-1.317,0.063h-3.378V66.938h3.592a12.1,12.1,0,0,1,1.278.066,6.922,6.922,0,0,1,1.237.246,5.453,5.453,0,0,1,1.153.492,4.23,4.23,0,0,1,1.014.813,5.982,5.982,0,0,1,1.157,2.1A8.4,8.4,0,0,1,298.038,73.246Zm-1.867.063c0-.238-0.016-0.518-0.045-0.84a6.9,6.9,0,0,0-.17-0.992,5.748,5.748,0,0,0-.353-1.01,3.585,3.585,0,0,0-.586-0.9,2.954,2.954,0,0,0-1.336-.854,6.324,6.324,0,0,0-1.845-.236H289.96v9.553h1.51a8.363,8.363,0,0,0,.961-0.054,6.3,6.3,0,0,0,.89-0.165,4.481,4.481,0,0,0,.791-0.291,2.9,2.9,0,0,0,.656-0.429,3.535,3.535,0,0,0,.692-0.866,4.99,4.99,0,0,0,.43-1,6.181,6.181,0,0,0,.219-1.01A7.434,7.434,0,0,0,296.171,73.309Z"/>
    <path d="M310.344,66.938v7.936a5.512,5.512,0,0,1-.354,2.015,4.357,4.357,0,0,1-2.537,2.547,5.371,5.371,0,0,1-1.979.353,5.919,5.919,0,0,1-1.979-.316,4.238,4.238,0,0,1-1.546-.939,4.172,4.172,0,0,1-1.006-1.555,6.034,6.034,0,0,1-.357-2.166V66.938h1.752v7.986a4.111,4.111,0,0,0,.281,1.637,2.627,2.627,0,0,0,.734,1.01,2.588,2.588,0,0,0,1.02.51,4.647,4.647,0,0,0,1.142.144,3.883,3.883,0,0,0,1.172-.156,2.86,2.86,0,0,0,.842-0.416,2.2,2.2,0,0,0,.563-0.6,3.217,3.217,0,0,0,.336-0.715,3.747,3.747,0,0,0,.161-0.746,6.789,6.789,0,0,0,.04-0.707V66.938h1.716Z"/>
    <path d="M322.291,78.725a10.594,10.594,0,0,1-2.037.8,7.036,7.036,0,0,1-1.823.259,5.558,5.558,0,0,1-1.729-.254,5.035,5.035,0,0,1-1.4-.7,5.147,5.147,0,0,1-1.081-1.06,6.187,6.187,0,0,1-.769-1.327A7.455,7.455,0,0,1,313,74.939a8.491,8.491,0,0,1-.151-1.595A8.746,8.746,0,0,1,313,71.7a7.783,7.783,0,0,1,.469-1.559,6.725,6.725,0,0,1,.782-1.377,5.363,5.363,0,0,1,1.086-1.1,4.974,4.974,0,0,1,1.381-.729,5.127,5.127,0,0,1,1.675-.264,4.918,4.918,0,0,1,1.193.144,3.679,3.679,0,0,1,1.077.459,3.452,3.452,0,0,1,.9.83,4.148,4.148,0,0,1,.64,1.248l-1.564.375A2.169,2.169,0,0,0,320.276,69a1.883,1.883,0,0,0-.515-0.456,2.01,2.01,0,0,0-.63-0.241,3.467,3.467,0,0,0-.71-0.072,3.024,3.024,0,0,0-1.6.42,3.741,3.741,0,0,0-1.166,1.125,5.319,5.319,0,0,0-.715,1.63,7.614,7.614,0,0,0-.241,1.924,7,7,0,0,0,.232,1.8,4.882,4.882,0,0,0,.715,1.567,3.743,3.743,0,0,0,1.216,1.107,3.434,3.434,0,0,0,1.733.419A5.286,5.286,0,0,0,320.039,78a10.064,10.064,0,0,0,1.662-.657Z"/>
    <path d="M323.122,78.983l4.771-12.046h1.725l4.71,12.09v0.527h-1.689l-1.358-3.538h-5.209l-1.377,3.538h-1.572V78.983Zm4.718-7.722-1.188,3.218h4.066l-1.162-3.218-0.849-2.412Z"/>
    <path d="M339.548,79.555H337.8V68.5h-3.914V66.938h9.571V68.5h-3.914V79.555Z"/>
    <path d="M345.472,79.555V66.938h1.751V79.555h-1.751Z"/>
    <path d="M355.552,79.787a6.467,6.467,0,0,1-1.854-.245,4.994,4.994,0,0,1-1.443-.685,4.484,4.484,0,0,1-1.067-1.045,5.861,5.861,0,0,1-.725-1.332,7.437,7.437,0,0,1-.41-1.537,10.523,10.523,0,0,1-.13-1.67,10.317,10.317,0,0,1,.139-1.707A7.613,7.613,0,0,1,350.489,70a5.945,5.945,0,0,1,.741-1.345,4.715,4.715,0,0,1,1.077-1.054,4.945,4.945,0,0,1,1.435-.688,6.776,6.776,0,0,1,3.619,0,4.958,4.958,0,0,1,1.435.688,4.731,4.731,0,0,1,1.076,1.054A5.821,5.821,0,0,1,360.609,70a7.865,7.865,0,0,1,.425,1.564,10.424,10.424,0,0,1,.139,1.707,10.639,10.639,0,0,1-.13,1.67,7.687,7.687,0,0,1-.406,1.537,5.734,5.734,0,0,1-.72,1.332,4.488,4.488,0,0,1-1.068,1.045,4.988,4.988,0,0,1-1.442.685A6.476,6.476,0,0,1,355.552,79.787Zm0-1.563a3.771,3.771,0,0,0,1.836-.4,3.1,3.1,0,0,0,1.157-1.09,4.631,4.631,0,0,0,.6-1.589,10.049,10.049,0,0,0,.174-1.911,9.924,9.924,0,0,0-.183-1.955,4.551,4.551,0,0,0-.621-1.589,3.119,3.119,0,0,0-1.162-1.067,4.386,4.386,0,0,0-3.61,0,3.116,3.116,0,0,0-1.161,1.067,4.613,4.613,0,0,0-.626,1.589,9.7,9.7,0,0,0-.187,1.955,10.047,10.047,0,0,0,.175,1.911,4.611,4.611,0,0,0,.6,1.589,3.1,3.1,0,0,0,1.157,1.09A3.793,3.793,0,0,0,355.552,78.224Z"/>
    <path d="M363.881,79.555V66.938h2.2l5.889,9.893,0.2-.045q-0.009-.287-0.013-0.657t-0.014-.769q-0.009-.4-0.014-0.791c0-.262-0.006-0.5-0.009-0.729s0-.415,0-0.576V66.938h1.644V79.555h-2.117L365.632,69.52l-0.187.045c0.006,0.2.011,0.42,0.014,0.67s0.007,0.512.014,0.782,0.01,0.542.013,0.813,0.006,0.52.009,0.746,0,0.424,0,.594v6.385h-1.617Z"/>
  </g>
  <g>
    <path d="M210.839,90.544a4.434,4.434,0,0,1-.232,1.442,2.934,2.934,0,0,1-.782,1.2,3.924,3.924,0,0,1-1.461.826,7.144,7.144,0,0,1-2.261.309h-1.645v5.245h-1.751V86.951h3.727a7.709,7.709,0,0,1,1.751.188,3.875,3.875,0,0,1,1.395.612,2.931,2.931,0,0,1,.925,1.112A3.814,3.814,0,0,1,210.839,90.544ZM204.458,92.8h0.85q0.447,0,.9-0.009a6.7,6.7,0,0,0,.862-0.071,3.714,3.714,0,0,0,.765-0.2,1.8,1.8,0,0,0,.616-0.389,1.746,1.746,0,0,0,.411-0.643,2.694,2.694,0,0,0,.147-0.952,2.162,2.162,0,0,0-.224-1.055,1.69,1.69,0,0,0-.59-0.63,2.3,2.3,0,0,0-.84-0.309,5.955,5.955,0,0,0-.982-0.08h-1.913V92.8Z"/>
    <path d="M210.8,99l4.771-12.046H217.3l4.71,12.091v0.527h-1.689l-1.358-3.539h-5.209l-1.377,3.539H210.8V99Zm4.718-7.721-1.188,3.218H218.4l-1.162-3.218-0.849-2.413Z"/>
    <path d="M223.913,99.569V86.951h3.869a7.994,7.994,0,0,1,1.608.161,4.169,4.169,0,0,1,1.4.544,2.97,2.97,0,0,1,.987,1.019,3.031,3.031,0,0,1,.376,1.571,3.466,3.466,0,0,1-.161,1.094,2.937,2.937,0,0,1-.46.875,3.005,3.005,0,0,1-.729.674,4.833,4.833,0,0,1-.965.492,3.739,3.739,0,0,1,1.13.434,2.035,2.035,0,0,1,.652.644,2.659,2.659,0,0,1,.34.877q0.1,0.5.192,1.127t0.214,1.4a12.911,12.911,0,0,0,.411,1.7H230.9q-0.187-.974-0.291-1.756t-0.21-1.385a7.067,7.067,0,0,0-.255-1.037,1.8,1.8,0,0,0-.424-0.71,1.648,1.648,0,0,0-.715-0.407,4.079,4.079,0,0,0-1.126-.13h-2.217v5.425h-1.751Zm1.742-6.756h2.073a4.037,4.037,0,0,0,1.019-.124,2.262,2.262,0,0,0,.827-0.4,1.86,1.86,0,0,0,.554-0.727,2.7,2.7,0,0,0,.2-1.1,1.932,1.932,0,0,0-.259-1.07A1.659,1.659,0,0,0,229.4,88.8a2.619,2.619,0,0,0-.916-0.25c-0.336-.033-0.665-0.049-0.987-0.049h-1.841v4.315Z"/>
    <path d="M239.337,99.569h-1.743V88.516H233.68V86.951h9.571v1.564h-3.914V99.569Z"/>
    <path d="M245.262,99.569V86.951h2.2l5.889,9.893,0.2-.045q-0.009-.286-0.013-0.656c0-.247-0.008-0.5-0.014-0.769s-0.011-.529-0.014-0.791-0.006-.5-0.009-0.729,0-.415,0-0.576V86.951h1.644V99.569h-2.117l-6.006-10.035-0.187.044c0.006,0.2.011,0.42,0.014,0.671s0.007,0.511.014,0.782,0.01,0.541.013,0.813,0.006,0.52.009,0.746,0,0.425,0,.595v6.385h-1.617Z"/>
    <path d="M265.931,99.569h-7.39V86.951h7.31v1.564h-5.559V92.26h5.246v1.563h-5.246V97.97h5.639v1.6Z"/>
    <path d="M268.719,99.569V86.951h3.869a7.994,7.994,0,0,1,1.608.161,4.169,4.169,0,0,1,1.4.544,2.97,2.97,0,0,1,.987,1.019,3.031,3.031,0,0,1,.376,1.571,3.466,3.466,0,0,1-.161,1.094,2.937,2.937,0,0,1-.46.875,3.005,3.005,0,0,1-.729.674,4.833,4.833,0,0,1-.965.492,3.739,3.739,0,0,1,1.13.434,2.035,2.035,0,0,1,.652.644,2.659,2.659,0,0,1,.34.877q0.1,0.5.192,1.127t0.214,1.4a12.911,12.911,0,0,0,.411,1.7h-1.876q-0.187-.974-0.291-1.756t-0.21-1.385a7.067,7.067,0,0,0-.255-1.037,1.8,1.8,0,0,0-.424-0.71,1.648,1.648,0,0,0-.715-0.407,4.079,4.079,0,0,0-1.126-.13H270.47v5.425h-1.751Zm1.742-6.756h2.073a4.037,4.037,0,0,0,1.019-.124,2.262,2.262,0,0,0,.827-0.4,1.86,1.86,0,0,0,.554-0.727,2.7,2.7,0,0,0,.2-1.1,1.932,1.932,0,0,0-.259-1.07,1.659,1.659,0,0,0-.671-0.592,2.619,2.619,0,0,0-.916-0.25c-0.336-.033-0.665-0.049-0.987-0.049h-1.841v4.315Z"/>
    <path d="M282.865,98.238a4.39,4.39,0,0,0,1.265-.161A2.513,2.513,0,0,0,285,97.635a1.754,1.754,0,0,0,.51-0.661,2.048,2.048,0,0,0,.165-0.827,1.868,1.868,0,0,0-.152-0.781,1.672,1.672,0,0,0-.479-0.6,4,4,0,0,0-.846-0.51q-0.519-.24-1.244-0.5a9.707,9.707,0,0,1-1.6-.719,4.34,4.34,0,0,1-1.052-.832,2.739,2.739,0,0,1-.577-0.992,3.891,3.891,0,0,1-.175-1.2,3.2,3.2,0,0,1,.306-1.435,2.971,2.971,0,0,1,.84-1.041,3.719,3.719,0,0,1,1.254-.634,5.382,5.382,0,0,1,1.551-.215,6,6,0,0,1,1.8.292,7.581,7.581,0,0,1,1.9.938l-0.688,1.307a6.468,6.468,0,0,0-1.559-.746,4.875,4.875,0,0,0-1.417-.228,2.68,2.68,0,0,0-1.68.46,1.522,1.522,0,0,0-.59,1.272,2.149,2.149,0,0,0,.125.776,1.488,1.488,0,0,0,.41.576,2.978,2.978,0,0,0,.745.465q0.46,0.209,1.138.441a11.289,11.289,0,0,1,1.91.813,4.344,4.344,0,0,1,1.115.857,2.3,2.3,0,0,1,.521.956,4.528,4.528,0,0,1,.13,1.125,4.053,4.053,0,0,1-.3,1.589,3.286,3.286,0,0,1-.858,1.2,3.814,3.814,0,0,1-1.377.759,6.072,6.072,0,0,1-1.863.264,6.608,6.608,0,0,1-1.743-.255,9.422,9.422,0,0,1-1.957-.809l0.572-1.395a9.482,9.482,0,0,0,1.613.671A4.927,4.927,0,0,0,282.865,98.238Z"/>
    <path d="M299.228,99.569h-1.761V93.85h-5.729v5.72h-1.76V86.934h1.76V92.26h5.729V86.934h1.761V99.569Z"/>
    <path d="M302.641,99.569V86.951h1.751V99.569h-1.751Z"/>
    <path d="M315.929,90.544a4.434,4.434,0,0,1-.232,1.442,2.934,2.934,0,0,1-.782,1.2,3.924,3.924,0,0,1-1.461.826,7.144,7.144,0,0,1-2.261.309h-1.645v5.245H307.8V86.951h3.727a7.709,7.709,0,0,1,1.751.188,3.875,3.875,0,0,1,1.395.612,2.931,2.931,0,0,1,.925,1.112A3.814,3.814,0,0,1,315.929,90.544ZM309.548,92.8h0.85q0.447,0,.9-0.009a6.7,6.7,0,0,0,.862-0.071,3.714,3.714,0,0,0,.765-0.2,1.8,1.8,0,0,0,.616-0.389,1.746,1.746,0,0,0,.411-0.643,2.694,2.694,0,0,0,.147-0.952,2.162,2.162,0,0,0-.224-1.055,1.69,1.69,0,0,0-.59-0.63,2.3,2.3,0,0,0-.84-0.309,5.955,5.955,0,0,0-.982-0.08h-1.913V92.8Z"/>
    <path d="M321.317,99l4.771-12.046h1.725l4.71,12.091v0.527h-1.689l-1.358-3.539h-5.209l-1.377,3.539h-1.572V99Zm4.718-7.721-1.188,3.218h4.066l-1.162-3.218L326.9,88.863Z"/>
    <path d="M336.115,99.569l-3.467-12.618h1.858q0.393,1.564.809,3.154t0.809,3.146c0.024,0.113.06,0.284,0.107,0.514l0.161,0.772q0.089,0.429.179,0.894t0.165,0.867c0.051,0.268.093,0.5,0.125,0.7a3.087,3.087,0,0,1,.05.4l0.223,0.027,0.26-1.117q0.277-1.144.5-2.056t0.424-1.68q0.2-.768.38-1.434t0.362-1.323q0.179-.658.371-1.349c0.128-.463.267-0.967,0.415-1.516h1.993l1.8,6.7c0.071,0.221.152,0.481,0.241,0.782s0.176,0.609.26,0.925,0.157,0.62.223,0.911a6.009,6.009,0,0,1,.126.742l0.231,0.018,0.376-1.68q0.081-.349.156-0.692t0.139-.63c0.041-.191.079-0.355,0.111-0.492s0.059-.234.076-0.295l1.563-6.291h1.778l-3.476,12.618h-1.832l-0.706-2.592q-0.268-1-.55-2t-0.541-2c-0.023-.084-0.061-0.229-0.111-0.437s-0.107-.449-0.17-0.72-0.128-.558-0.2-0.858-0.131-.586-0.187-0.857-0.1-.51-0.139-0.715a2.927,2.927,0,0,1-.054-0.425l-0.232-.018L339.708,93l-1.8,6.568h-1.8Z"/>
    <path d="M349.028,99L353.8,86.951h1.725l4.71,12.091v0.527h-1.689l-1.358-3.539h-5.209L350.6,99.569h-1.572V99Zm4.718-7.721-1.188,3.218h4.066l-1.162-3.218-0.849-2.413Z"/>
    <path d="M362.138,99.569V86.951h3.869a7.994,7.994,0,0,1,1.608.161,4.169,4.169,0,0,1,1.4.544A2.97,2.97,0,0,1,370,88.675a3.031,3.031,0,0,1,.376,1.571,3.466,3.466,0,0,1-.161,1.094,2.937,2.937,0,0,1-.46.875,3.005,3.005,0,0,1-.729.674,4.833,4.833,0,0,1-.965.492,3.739,3.739,0,0,1,1.13.434,2.035,2.035,0,0,1,.652.644,2.659,2.659,0,0,1,.34.877q0.1,0.5.192,1.127t0.214,1.4a12.911,12.911,0,0,0,.411,1.7h-1.876q-0.187-.974-0.291-1.756t-0.21-1.385a7.067,7.067,0,0,0-.255-1.037,1.8,1.8,0,0,0-.424-0.71,1.648,1.648,0,0,0-.715-0.407,4.079,4.079,0,0,0-1.126-.13h-2.217v5.425h-1.751Zm1.742-6.756h2.073a4.037,4.037,0,0,0,1.019-.124,2.262,2.262,0,0,0,.827-0.4,1.86,1.86,0,0,0,.554-0.727,2.7,2.7,0,0,0,.2-1.1,1.932,1.932,0,0,0-.259-1.07,1.659,1.659,0,0,0-.671-0.592,2.619,2.619,0,0,0-.916-0.25c-0.336-.033-0.665-0.049-0.987-0.049H363.88v4.315Z"/>
    <path d="M383.424,93.26a8.343,8.343,0,0,1-.156,1.676,7.7,7.7,0,0,1-.415,1.39,6.041,6.041,0,0,1-.595,1.113,5.042,5.042,0,0,1-.71.835,4.271,4.271,0,0,1-.943.626,5.745,5.745,0,0,1-1.09.4,8.09,8.09,0,0,1-1.216.21q-0.639.063-1.317,0.063H373.6V86.951H377.2a12.1,12.1,0,0,1,1.278.067,6.836,6.836,0,0,1,1.237.245,5.453,5.453,0,0,1,1.153.492,4.279,4.279,0,0,1,1.014.813,5.986,5.986,0,0,1,1.157,2.105A8.389,8.389,0,0,1,383.424,93.26Zm-1.867.063c0-.238-0.016-0.518-0.045-0.84a6.886,6.886,0,0,0-.17-0.991,5.758,5.758,0,0,0-.353-1.011,3.62,3.62,0,0,0-.586-0.9,2.962,2.962,0,0,0-1.336-.854,6.358,6.358,0,0,0-1.845-.236h-1.877v9.553h1.51a8.363,8.363,0,0,0,.961-0.054,6.168,6.168,0,0,0,.89-0.165,4.479,4.479,0,0,0,.791-0.29,2.9,2.9,0,0,0,.656-0.43,3.5,3.5,0,0,0,.692-0.866,4.99,4.99,0,0,0,.43-1,6.17,6.17,0,0,0,.219-1.009A7.436,7.436,0,0,0,381.557,93.322Z"/>
  </g>
</g>
</svg>